<svg class="diagram-root" style="background: #f5f6f6" xmlns="http://www.w3.org/2000/svg" xmlns:xlink="http://www.w3.org/1999/xlink"><style>.diagram-root { font-family: "Helvetica Neue", sans-serif; font-size: 12px; } .t { overflow: visible; } .t-bg { y: 40; fill: #fff;   } .th { fill: #005aa0;   } .tht { fill: #fff; font-size: 14px;  } .tf { fill: #323c46; overflow: visible; } .tf.pk { fill: #005aa0; font-weight: bold; } .tf.fk { font-weight: bold; } .ty { fill: #adb1b5; font-weight: normal; text-anchor: end; } .r { fill: transparent; stroke: #c3c3c3; stroke-width: 1; } .l { stroke: 1; } .i { fill: #c2c7ce; stroke: #c2c7ce; } .i.ix { fill: #afb3b6; stroke: #000; } .fa { fill: transparent; overflow: visible; } .fa .bg.hover { fill: #f7f7f7; } .c { cy: 12; r: 4; stroke: #d2d2dc; fill: #d2d2dc; } .hr { fill: transparent; stroke: #323c46; stroke-opacity: 0.035; stroke-width: 13; } .dc { stroke: #fa5a3c; fill: #fa5a3c; } .x { stroke: white; stroke-width: 1; } .hl .th { fill: #1b9bff; } .hl .tht {  } .fhl .bg { fill: #e7f4ff; } .fhls .bg {  } .r.hl { stroke: #1b9bff; } .dim { opacity: 0.25; }</style><g class="drawing-wrapper" transform="translate(7.555555555555552, 11.111111111111107) scale(1,1)"><g class="rs"><path d="M 248.3311111111111 77 m -1, 0 a 1,1 0 1,0 2,0 a 1,1 0 1,0 -2,0 M 248.3311111111111 77 m -0.5, 0 a 0.5,0.5 0 1,0 1,0 a 0.5,0.5 0 1,0 -1,0  M248.3311111111111 77 L248.3311111111111 77 236.3311111111111 77 M242.3311111111111 83 L242.3311111111111 83 242.3311111111111 71 M236.3311111111111 77 Q 219.54 77, 202.75 76.44 T 169.17 75.89 M 157.17 75.89 m -1, 0 a 1,1 0 1,0 2,0 a 1,1 0 1,0 -2,0 M 157.17 75.89 m -0.5, 0 a 0.5,0.5 0 1,0 1,0 a 0.5,0.5 0 1,0 -1,0  M157.17 75.89 L157.17 75.89 169.17 75.89 M163.17 81.89 L163.17 81.89 163.17 69.89" id="h3304753978" class="r"></path><path d="M 248.3311111111111 102 m -1, 0 a 1,1 0 1,0 2,0 a 1,1 0 1,0 -2,0 M 248.3311111111111 102 m -0.5, 0 a 0.5,0.5 0 1,0 1,0 a 0.5,0.5 0 1,0 -1,0  M248.3311111111111 102 L248.3311111111111 102 236.3311111111111 102 M242.3311111111111 108 L242.3311111111111 108 242.3311111111111 96 M236.3311111111111 102 Q 219.9 102, 203.47 174.39 T 170.6 246.77777777777777 M 158.6 246.77777777777777 m -1, 0 a 1,1 0 1,0 2,0 a 1,1 0 1,0 -2,0 M 158.6 246.77777777777777 m -0.5, 0 a 0.5,0.5 0 1,0 1,0 a 0.5,0.5 0 1,0 -1,0  M158.6 246.77777777777777 L158.6 246.77777777777777 170.6 246.77777777777777 M164.6 252.77777777777777 L164.6 252.77777777777777 164.6 240.77777777777777" id="h3782856632" class="r"></path><path d="M 249.4 260.6 m -1, 0 a 1,1 0 1,0 2,0 a 1,1 0 1,0 -2,0 M 249.4 260.6 m -0.5, 0 a 0.5,0.5 0 1,0 1,0 a 0.5,0.5 0 1,0 -1,0  M249.4 260.6 L249.4 260.6 237.4 260.6 M243.4 266.6 L243.4 266.6 243.4 254.60000000000002 M237.4 260.6 Q 220.7 260.6, 204 253.69 T 170.6 246.77777777777777 M 158.6 246.77777777777777 m -1, 0 a 1,1 0 1,0 2,0 a 1,1 0 1,0 -2,0 M 158.6 246.77777777777777 m -0.5, 0 a 0.5,0.5 0 1,0 1,0 a 0.5,0.5 0 1,0 -1,0  M158.6 246.77777777777777 L158.6 246.77777777777777 170.6 246.77777777777777 M164.6 252.77777777777777 L164.6 252.77777777777777 164.6 240.77777777777777" id="h1277105345" class="r"></path><path d="M 249.4 285.6 m -1, 0 a 1,1 0 1,0 2,0 a 1,1 0 1,0 -2,0 M 249.4 285.6 m -0.5, 0 a 0.5,0.5 0 1,0 1,0 a 0.5,0.5 0 1,0 -1,0  M249.4 285.6 L249.4 285.6 237.4 285.6 M243.4 291.6 L243.4 291.6 243.4 279.6 M237.4 285.6 Q 220.35 285.6, 203.29 180.75 T 169.17 75.89 M 157.17 75.89 m -1, 0 a 1,1 0 1,0 2,0 a 1,1 0 1,0 -2,0 M 157.17 75.89 m -0.5, 0 a 0.5,0.5 0 1,0 1,0 a 0.5,0.5 0 1,0 -1,0  M157.17 75.89 L157.17 75.89 169.17 75.89 M163.17 81.89 L163.17 81.89 163.17 69.89" id="h1882043173" class="r"></path><path d="M 21.59 472 m -1, 0 a 1,1 0 1,0 2,0 a 1,1 0 1,0 -2,0 M 21.59 472 m -0.5, 0 a 0.5,0.5 0 1,0 1,0 a 0.5,0.5 0 1,0 -1,0  M21.59 472 L21.59 472 9.59 472 M15.59 478 L15.59 478 15.59 466 M9.59 472 C -48.465111111111106 472, -45.44444444444444 246.77777777777777, 4.555555555555557 246.77777777777777 M 16.555555555555557 246.77777777777777 m -1, 0 a 1,1 0 1,0 2,0 a 1,1 0 1,0 -2,0 M 16.555555555555557 246.77777777777777 m -0.5, 0 a 0.5,0.5 0 1,0 1,0 a 0.5,0.5 0 1,0 -1,0  M16.555555555555557 246.77777777777777 L16.555555555555557 246.77777777777777 4.555555555555557 246.77777777777777 M10.555555555555557 252.77777777777777 L10.555555555555557 252.77777777777777 10.555555555555557 240.77777777777777" id="h221257298" class="r"></path><path d="M 253.89 465.89 m -1, 0 a 1,1 0 1,0 2,0 a 1,1 0 1,0 -2,0 M 253.89 465.89 m -0.5, 0 a 0.5,0.5 0 1,0 1,0 a 0.5,0.5 0 1,0 -1,0  M253.89 465.89 L253.89 465.89 241.89 465.89 M247.89 471.89 L247.89 471.89 247.89 459.89 M241.89 465.89 Q 224.07 465.89, 206.25 356.33 T 170.6 246.77777777777777 M 158.6 246.77777777777777 m -1, 0 a 1,1 0 1,0 2,0 a 1,1 0 1,0 -2,0 M 158.6 246.77777777777777 m -0.5, 0 a 0.5,0.5 0 1,0 1,0 a 0.5,0.5 0 1,0 -1,0  M158.6 246.77777777777777 L158.6 246.77777777777777 170.6 246.77777777777777 M164.6 252.77777777777777 L164.6 252.77777777777777 164.6 240.77777777777777" id="h1168633520" class="r"></path></g><g class="hrs"></g><g class="ts"><svg width="142.73" height="100" x="14.44" y="18.89" id="h3708248841" class="t"><rect height="40" width="142.73" class="th"></rect><text x="13" y="25" class="tht">Departments</text><rect height="60" width="142.73" class="t-bg" y="40"></rect><text x="13" y="61" class="tf pk">dept_no<tspan x="129.73" class="ty">int</tspan></text><path d="M7,14A2,2 0 0,1 5,12A2,2 0 0,1 7,10A2,2 0 0,1 9,12A2,2 0 0,1 7,14M12.65,10C11.83,7.67 9.61,6 7, 6A6, 6 0 0, 0 1, 12A6, 6 0 0, 0 7, 18C9.61, 18 11.83, 16.33 12.65, 14H17V18H21V14H23V10H12.65Z" class="i pk" transform="translate(97.05617187499999, 48) scale(0.65)"></path><text x="13" y="86" class="tf">dep_name<tspan x="129.73" class="ty">varchar</tspan></text></svg><svg width="129.39" height="150" x="249.4" y="203.6" id="h3353995054" class="t"><rect height="40" width="129.39" class="th"></rect><text x="13" y="25" class="tht">Dept_Emp</text><rect height="110" width="129.39" class="t-bg" y="40"></rect><text x="13" y="61" class="tf pk">emp_no<tspan x="116.38999999999999" class="ty">int</tspan></text><path d="M7,14A2,2 0 0,1 5,12A2,2 0 0,1 7,10A2,2 0 0,1 9,12A2,2 0 0,1 7,14M12.65,10C11.83,7.67 9.61,6 7, 6A6, 6 0 0, 0 1, 12A6, 6 0 0, 0 7, 18C9.61, 18 11.83, 16.33 12.65, 14H17V18H21V14H23V10H12.65Z" class="i pk" transform="translate(83.71617187499999, 48) scale(0.65)"></path><text x="13" y="86" class="tf fk">dept_no<tspan x="116.38999999999999" class="ty">varchar</tspan></text><text x="13" y="111" class="tf">from_date<tspan x="116.38999999999999" class="ty">date</tspan></text><text x="13" y="136" class="tf">to_date<tspan x="116.38999999999999" class="ty">date</tspan></text></svg><svg width="123.38" height="150" x="21.59" y="415" id="h3858243705" class="t"><rect height="40" width="123.38" class="th"></rect><text x="13" y="25" class="tht">Salaries</text><rect height="110" width="123.38" class="t-bg" y="40"></rect><text x="13" y="61" class="tf pk">emp_no<tspan x="110.38" class="ty">int</tspan></text><path d="M7,14A2,2 0 0,1 5,12A2,2 0 0,1 7,10A2,2 0 0,1 9,12A2,2 0 0,1 7,14M12.65,10C11.83,7.67 9.61,6 7, 6A6, 6 0 0, 0 1, 12A6, 6 0 0, 0 7, 18C9.61, 18 11.83, 16.33 12.65, 14H17V18H21V14H23V10H12.65Z" class="i pk" transform="translate(77.706171875, 48) scale(0.65)"></path><text x="13" y="86" class="tf">salary<tspan x="110.38" class="ty">int</tspan></text><text x="13" y="111" class="tf">from_date<tspan x="110.38" class="ty">date</tspan></text><text x="13" y="136" class="tf">to_date<tspan x="110.38" class="ty">date</tspan></text></svg><svg width="123.38" height="150" x="253.89" y="408.89" id="h3517680912" class="t"><rect height="40" width="123.38" class="th"></rect><text x="13" y="25" class="tht">Titles</text><rect height="110" width="123.38" class="t-bg" y="40"></rect><text x="13" y="61" class="tf pk">emp_no<tspan x="110.38" class="ty">int</tspan></text><path d="M7,14A2,2 0 0,1 5,12A2,2 0 0,1 7,10A2,2 0 0,1 9,12A2,2 0 0,1 7,14M12.65,10C11.83,7.67 9.61,6 7, 6A6, 6 0 0, 0 1, 12A6, 6 0 0, 0 7, 18C9.61, 18 11.83, 16.33 12.65, 14H17V18H21V14H23V10H12.65Z" class="i pk" transform="translate(77.706171875, 48) scale(0.65)"></path><text x="13" y="86" class="tf">title<tspan x="110.38" class="ty">varchar</tspan></text><text x="13" y="111" class="tf">from_date<tspan x="110.38" class="ty">date</tspan></text><text x="13" y="136" class="tf">to_date<tspan x="110.38" class="ty">date</tspan></text></svg><svg width="149.39" height="150" x="248.3311111111111" y="20" id="h526843498" class="t"><rect height="40" width="149.39" class="th"></rect><text x="13" y="25" class="tht">Managers</text><rect height="110" width="149.39" class="t-bg" y="40"></rect><text x="13" y="61" class="tf pk">dept_no<tspan x="136.39" class="ty">varchar</tspan></text><path d="M7,14A2,2 0 0,1 5,12A2,2 0 0,1 7,10A2,2 0 0,1 9,12A2,2 0 0,1 7,14M12.65,10C11.83,7.67 9.61,6 7, 6A6, 6 0 0, 0 1, 12A6, 6 0 0, 0 7, 18C9.61, 18 11.83, 16.33 12.65, 14H17V18H21V14H23V10H12.65Z" class="i pk" transform="translate(76.37632812499999, 48) scale(0.65)"></path><text x="13" y="86" class="tf fk">emp_no<tspan x="136.39" class="ty">int</tspan></text><text x="13" y="111" class="tf">from_date<tspan x="136.39" class="ty">date</tspan></text><text x="13" y="136" class="tf">to_date<tspan x="136.39" class="ty">date</tspan></text></svg><svg width="142.04" height="200" x="16.555555555555557" y="189.77777777777777" id="h3299212598" class="t"><rect height="40" width="142.04" class="th"></rect><text x="13" y="25" class="tht">Employees</text><rect height="160" width="142.04" class="t-bg" y="40"></rect><text x="13" y="61" class="tf pk">emp_no<tspan x="129.04" class="ty">int</tspan></text><path d="M7,14A2,2 0 0,1 5,12A2,2 0 0,1 7,10A2,2 0 0,1 9,12A2,2 0 0,1 7,14M12.65,10C11.83,7.67 9.61,6 7, 6A6, 6 0 0, 0 1, 12A6, 6 0 0, 0 7, 18C9.61, 18 11.83, 16.33 12.65, 14H17V18H21V14H23V10H12.65Z" class="i pk" transform="translate(96.36617187499999, 48) scale(0.65)"></path><text x="13" y="86" class="tf">birth_date<tspan x="129.04" class="ty">date</tspan></text><text x="13" y="111" class="tf">first_name<tspan x="129.04" class="ty">varchar</tspan></text><text x="13" y="136" class="tf">last_name<tspan x="129.04" class="ty">varchar</tspan></text><text x="13" y="161" class="tf">gender<tspan x="129.04" class="ty">varchar</tspan></text><text x="13" y="186" class="tf">hire_date<tspan x="129.04" class="ty">date</tspan></text></svg></g></g><text class="qdbd-link" x="10" y="20">www.quickdatabasediagrams.com</text></svg>